HIERARCHY
ROOT pelvis
{
  OFFSET 0 100 0
  CHANNELS 6 Xposition Yposition Zposition Zrotation Xrotation Yrotation
  JOINT pelvis_right_femur
  {
    OFFSET -10.78128 -3.44521 -0.5502486
    CHANNELS 3 Zrotation Xrotation Yrotation
    JOINT right_femur_tibia
    {
      OFFSET -0.8047443 -44.0398 -0.1307829
      CHANNELS 3 Zrotation Xrotation Yrotation
      JOINT right_tibia_foot
      {
        OFFSET 3.006224 -47.83518 -5
        CHANNELS 3 Zrotation Xrotation Yrotation
        End Site
        {
          OFFSET 0 -5 15
        }
      }
    }
  }
  JOINT pelvis_left_femur
  {
    OFFSET 10.78128 -3.44521 -0.5502486
    CHANNELS 3 Zrotation Xrotation Yrotation
    JOINT left_femur_tibia
    {
      OFFSET 0.8047443 -44.0398 -0.1307829
      CHANNELS 3 Zrotation Xrotation Yrotation
      JOINT left_tibia_foot
      {
        OFFSET -4.370144 -48.10324 -4.275266
        CHANNELS 3 Zrotation Xrotation Yrotation
        End Site
        {
          OFFSET 0 -5 15
        }
      }
    }
  }
  JOINT pelvis_spine1
  {
    OFFSET 0 6.468898 -3.129235
    CHANNELS 3 Zrotation Xrotation Yrotation
    JOINT spine1
    {
      OFFSET 0 23.15396 4.99043
      CHANNELS 3 Zrotation Xrotation Yrotation
      JOINT spine2
      {
        OFFSET 0 20.79997 -5.064912
        CHANNELS 3 Zrotation Xrotation Yrotation
        JOINT neck
        {
          OFFSET 0 14.38658 9.616178
          CHANNELS 3 Zrotation Xrotation Yrotation
          End Site
          {
            OFFSET 0 20 0
          }
        }
      }
      JOINT right_manubrium
      {
        OFFSET -5.722621 16.35077 3.967754
        CHANNELS 3 Zrotation Xrotation Yrotation
        JOINT right_clavicle
        {
          OFFSET -13.16364 1.694482 -4.693211
          CHANNELS 3 Zrotation Xrotation Yrotation
          JOINT right_humerus
          {
            OFFSET -28.5034 -0.3100689 -2.792744
            CHANNELS 3 Zrotation Xrotation Yrotation
            JOINT right_radius
            {
              OFFSET -25.15693 0.02248979 -1.271978
              CHANNELS 3 Zrotation Xrotation Yrotation
              End Site
              {
                OFFSET -15 0 0
              }
            }
          }
        }
      }
      JOINT left_manubrium
      {
        OFFSET 5.722621 16.35077 3.967754
        CHANNELS 3 Zrotation Xrotation Yrotation
        JOINT left_clavicle
        {
          OFFSET 13.16364 1.694482 -4.693211
          CHANNELS 3 Zrotation Xrotation Yrotation
          JOINT left_humerus
          {
            OFFSET 29.39168 -1.063119 -2.237045
            CHANNELS 3 Zrotation Xrotation Yrotation
            JOINT left_radius
            {
              OFFSET 24.59957 -0.9528479 0.9047498
              CHANNELS 3 Zrotation Xrotation Yrotation
              End Site
              {
                OFFSET 15 -0 -0
              }
            }
          }
        }
      }
    }
  }
}
MOTION
Frames: 9
Frame Time: 0.0416666666667
0 103.5113 0 0.6639592 0.2853054 -0.1477417 3.166728 -18.53124 9.759438 -0 38.21943 -0 -5.595535 -21.11607 -3.752197 -6.361918 11.41062 -23.99737 -0 6.748032 -0 9.848059 -16.18994 26.32281 -4.280077 -4.496558 4.1569 3.153353 9.316965 -8.806454 1.129009 21.98773 6.957842 2.793174 -24.42006 9.725797 8.180995 -18.83474 11.71347 84.46594 39.55178 -19.32432 -0 0 15.88028 -7.563804 10.9575 4.648791 5.044751 -19.69734 -0.5900018 -92.23242 26.50029 20.19433 0 0 -15.22758 8.614104 18.8493 3.193145
0.2405672 102.4882 1.132328 0.6438315 0.03505678 -0.2611064 3.402205 -18.35929 9.933617 -0 38.47675 -0 -5.43029 -20.46599 -3.828402 -6.533379 10.89668 -23.76118 -0 6.287639 -0 9.699878 -16.55702 26.63079 -4.126783 -4.181323 4.336302 2.981835 9.218245 -8.44438 1.290035 22.01858 6.856745 2.673254 -24.56659 9.8593 7.597342 -19.0826 11.57034 84.6214 38.28301 -18.96107 -0 0 16.20988 -7.278258 10.38161 4.587027 5.17658 -19.46359 -0.6085706 -92.69894 26.82943 20.66384 0 0 -15.21836 8.377362 18.44427 3.846508
0.6837821 99.23955 6.738563 -0.2622841 -12.65933 1.074348 2.771431 3.369577 0.6692008 -0 50.92004 -0 -3.005246 2.799391 -7.180461 -7.841231 4.427009 -9.007303 0 -2.483725 0 -14.37416 -32.57509 17.5274 -1.229034 2.275534 2.913298 1.767382 3.661416 -2.64718 2.881844 25.69156 5.669531 -1.889999 -27.68459 12.01301 -14.5702 -20.49223 5.484477 99.58581 -10.50974 -7.821545 -0 0 21.24474 -11.0857 -6.589636 5.494254 8.651767 -13.24021 2.320273 -104.4532 30.27904 28.62124 -0 0 4.240461 -4.260285 8.826659 19.63232
1.142596 97.55159 13.36502 -0.200083 -13.52875 2.517396 3.351524 4.004493 -0.06123162 -0 50.40184 -0 -2.943063 4.161443 -7.641824 -7.415125 5.526355 -7.543874 -0 2.135866 -0 -16.66689 -31.92607 15.93932 -0.7931603 2.544369 2.319129 1.776382 3.395615 -2.495165 3.083378 26.02845 5.482472 -2.211373 -27.24483 12.1375 -15.43517 -19.50626 5.297107 101.1071 -12.07442 -7.431961 -0 0 19.54097 -11.78222 -6.357455 5.402487 8.510195 -12.95557 2.264223 -103.4155 30.151 26.6955 -0 0 4.655426 -4.21823 8.690942 19.09135
1.527673 96.48588 20.47959 -0.01581853 -14.42006 3.726646 3.936806 3.538222 -0.06999745 -0 46.9512 -0 -3.253383 2.706566 -8.565323 -6.515033 7.827257 -6.49939 -0 13.20151 -0 -17.51394 -28.9117 15.25483 -0.5183458 2.472758 1.540161 1.792164 3.616694 -2.896123 3.361469 26.49662 5.052331 -2.282653 -25.40945 11.90252 -14.33167 -17.52343 5.659535 100.7514 -9.698347 -8.705534 -0 0 15.63243 -12.85294 -3.847045 5.085638 7.842761 -13.32895 1.703651 -99.76601 29.73958 21.38789 -0 0 3.125855 -3.126679 9.845803 16.49151
1.900269 95.84076 27.66244 0.3009599 -15.03833 4.673853 4.373954 3.764685 0.3489469 -0 43.94118 -0 -3.513817 0.9041988 -9.141999 -5.916032 8.451058 -6.27267 -0 21.4206 -0 -16.77969 -26.35152 15.98796 -0.4334263 2.396773 1.274227 1.753934 4.076691 -3.138763 3.574134 26.82449 4.690476 -2.231169 -24.05031 11.65105 -13.17112 -16.51282 6.074071 100.0713 -7.057484 -9.627234 -0 0 13.10959 -13.49863 -1.800213 5.002174 7.245061 -13.59355 1.109268 -97.50637 29.17024 18.1506 -0 0 1.834968 -2.153179 10.80932 14.48049
2.228343 95.45629 34.76848 0.6885789 -15.8273 5.29 4.727367 4.630276 0.9694758 -0 40.51109 -0 -3.708877 -1.305184 -9.80455 -5.298475 8.220411 -6.263169 -0 29.14018 -0 -15.53483 -23.76996 17.35496 -0.4121324 2.403642 1.19708 1.6229 4.645073 -3.260199 3.86471 27.20296 4.214294 -2.203662 -22.62769 11.37094 -12.05928 -15.82476 6.477157 99.42629 -4.317969 -10.26095 -0 0 10.98065 -14.16463 0.2514856 5.094494 6.609457 -13.7592 0.4033169 -95.60202 28.68363 15.41825 -0 0 0.5274363 -1.400279 11.69473 12.87546
2.544678 95.17753 41.78928 1.073024 -16.85952 5.653243 5.011712 7.026726 1.333119 -0 38.31362 -0 -3.64888 -2.632069 -10.3169 -4.865528 6.709503 -6.142593 -0 33.81096 -0 -14.57746 -22.00217 18.84106 -0.3427047 2.585806 1.303783 1.43281 5.075035 -3.035156 4.163376 27.6157 3.735045 -2.378963 -21.78089 11.22492 -11.94759 -15.86734 6.682256 99.57496 -3.533813 -9.892102 -0 0 10.13274 -14.78995 1.233019 5.474638 6.11168 -13.45502 -0.1470902 -95.09151 28.456 14.6089 -0 0 0.4029124 -1.400518 11.99339 12.4996
2.874873 94.90376 48.76019 1.455444 -18.12497 5.847415 5.237109 10.69986 1.484308 -0 37.09604 -0 -3.342073 -3.317868 -10.76676 -4.529244 4.265917 -5.859794 -0 36.13466 -0 -13.96169 -20.76708 20.33799 -0.2114638 2.910958 1.517017 1.183135 5.36099 -2.524092 4.489938 28.06817 3.211563 -2.764534 -21.32537 11.18483 -12.66706 -16.4406 6.703453 100.3879 -4.37461 -8.708364 -0 0 10.26797 -15.41919 1.36474 6.115241 5.69423 -12.73453 -0.5722194 -95.56277 28.52394 15.19345 -0 0 1.195583 -2.09602 11.74235 13.22231
